<?xml version="1.0" standalone="no"?>
<!DOCTYPE svg PUBLIC "-//W3C//DTD SVG 20010904//EN"
 "http://www.w3.org/TR/2001/REC-SVG-20010904/DTD/svg10.dtd">
<svg version="1.0" xmlns="http://www.w3.org/2000/svg"
 width="775.000000pt" height="775.000000pt" viewBox="0 0 775.000000 775.000000"
 preserveAspectRatio="xMidYMid meet">
<metadata>
Created by potrace 1.14, written by Peter Selinger 2001-2017
</metadata>
<g transform="translate(0.000000,775.000000) scale(0.100000,-0.100000)"
fill="#000000" stroke="none">
<path d="M2491 6926 c-999 -533 -1397 -750 -1403 -765 -27 -74 -999 -3254
-996 -3261 7 -21 3820 -2830 3831 -2823 22 13 3732 2775 3745 2787 11 11 -63
291 -413 1567 -234 855 -432 1577 -440 1604 l-14 51 -1449 792 c-796 436
-1452 792 -1457 792 -6 0 -637 -335 -1404 -744z m1313 381 c-16 -17 -458 -711
-983 -1540 l-954 -1508 -714 -569 c-392 -313 -713 -567 -713 -564 0 25 826
2756 840 2779 15 23 194 128 822 477 442 246 1008 562 1258 703 250 140 459
255 464 255 4 0 -5 -15 -20 -33z m305 -42 c128 -72 1103 -617 1965 -1097 245
-136 427 -243 437 -258 19 -26 834 -2749 825 -2758 -3 -2 -33 18 -68 45 -35
28 -346 274 -693 547 l-630 498 -971 1529 c-534 841 -979 1538 -989 1549 -10
11 -16 20 -13 20 3 0 65 -34 137 -75z m686 -1694 c623 -983 875 -1388 869
-1398 -15 -22 -1748 -1493 -1760 -1493 -10 0 -1692 1425 -1745 1478 l-26 27
201 317 c116 183 203 309 205 300 9 -45 42 -52 125 -27 99 30 172 12 204 -52
11 -21 36 -88 56 -149 20 -62 52 -136 70 -166 l32 -55 -90 -61 c-116 -77 -149
-93 -195 -94 -54 -1 -78 19 -112 89 -30 62 -52 80 -87 68 -27 -8 -44 -51 -50
-126 -7 -98 18 -170 83 -235 69 -71 139 -97 260 -98 139 0 270 42 402 132 54
36 136 82 147 82 3 0 -8 -29 -24 -65 -16 -36 -43 -108 -59 -159 -32 -104 -54
-150 -85 -184 -54 -61 -122 -67 -214 -21 -71 35 -100 35 -121 -2 -13 -23 -12
-31 13 -85 35 -77 94 -136 170 -170 54 -25 72 -28 161 -28 79 1 112 5 156 23
79 30 164 87 233 157 68 67 188 224 235 308 18 31 36 56 41 56 4 0 20 -21 35
-47 49 -84 173 -249 235 -313 179 -181 401 -236 580 -145 108 55 195 206 150
260 -18 22 -48 18 -114 -15 -138 -70 -226 -17 -287 174 -18 56 -47 136 -65
179 -18 42 -30 77 -28 77 11 0 94 -46 144 -80 252 -170 536 -182 675 -28 67
75 93 189 65 289 -24 85 -87 91 -121 11 -31 -73 -64 -102 -116 -102 -53 0 -80
13 -199 92 l-90 61 32 55 c18 30 50 104 70 166 49 149 66 180 108 200 42 20
76 20 149 1 77 -20 104 -19 117 4 18 34 11 57 -29 102 -78 89 -193 129 -309
109 -119 -21 -184 -64 -338 -226 -75 -80 -138 -143 -141 -141 -2 2 15 35 38
72 145 240 204 563 144 796 -95 367 -496 573 -915 469 -257 -63 -444 -239
-501 -470 -18 -73 -18 -314 0 -405 29 -149 94 -312 163 -413 17 -24 28 -45 26
-47 -6 -6 -81 68 -186 182 -78 86 -104 108 -165 138 -154 75 -292 65 -405 -30
-20 -16 128 225 386 632 230 362 528 830 661 1041 134 211 247 380 251 375 4
-4 402 -631 885 -1392z m-717 278 c109 -28 187 -73 273 -159 121 -120 166
-244 156 -435 -13 -246 -102 -472 -256 -646 -84 -95 -73 -139 38 -139 122 1
222 54 297 159 63 88 158 175 233 215 84 44 97 46 48 5 -48 -40 -69 -82 -108
-216 -32 -112 -67 -190 -92 -212 -12 -10 -26 -7 -74 12 -99 42 -134 49 -160
32 -25 -17 -32 -66 -10 -82 6 -5 41 -20 77 -33 99 -35 166 -71 265 -145 158
-117 242 -145 339 -112 45 15 46 15 36 -3 -16 -30 -91 -69 -155 -81 -114 -21
-242 19 -440 136 -60 36 -136 73 -167 83 -39 11 -60 24 -67 39 -13 28 -55 40
-77 22 -38 -31 -36 -43 31 -181 35 -73 82 -185 104 -249 52 -153 81 -209 133
-253 43 -37 117 -66 172 -66 l31 -1 -25 -14 c-67 -37 -186 -26 -298 27 -109
51 -212 163 -365 397 -121 185 -143 179 -307 -80 -88 -138 -221 -275 -311
-318 -37 -18 -97 -37 -135 -43 -59 -9 -78 -8 -129 7 l-60 19 57 7 c73 10 125
37 172 90 44 48 69 102 116 244 18 55 61 160 96 234 67 140 69 157 23 181 -26
15 -53 5 -68 -24 -9 -16 -30 -28 -69 -39 -32 -9 -95 -39 -142 -68 -204 -124
-346 -171 -461 -150 -67 11 -143 50 -159 81 -13 24 -12 24 33 5 90 -37 179
-10 326 99 114 85 147 103 260 146 79 30 98 41 105 63 8 21 6 31 -10 48 -24
26 -70 22 -162 -16 -45 -18 -67 -23 -76 -16 -27 22 -67 113 -92 207 -34 130
-58 177 -108 220 l-41 36 40 -17 c95 -39 197 -128 283 -246 67 -93 176 -149
290 -149 104 0 120 49 44 133 -27 29 -63 75 -81 101 -52 75 -127 243 -151 336
-29 118 -37 284 -16 380 53 250 250 417 536 453 57 8 180 -4 258 -24z m-1220
-2639 l901 -775 0 -977 c1 -538 -2 -978 -6 -978 -14 0 -3193 2393 -3187 2399
38 39 1372 1110 1380 1108 7 -1 417 -351 912 -777z m3637 269 c704 -563 710
-567 744 -580 13 -5 22 -11 20 -13 -13 -13 -3211 -2406 -3214 -2406 -3 0 -5
440 -5 978 l0 979 901 776 c496 428 904 777 908 777 4 0 295 -230 646 -511z"/>
<path d="M3627 4989 c-21 -12 -47 -61 -47 -89 0 -87 109 -132 171 -71 63 63
20 171 -68 171 -21 0 -46 -5 -56 -11z"/>
<path d="M4044 4982 c-82 -66 -39 -182 66 -182 18 0 42 11 61 28 68 61 23 172
-69 172 -20 0 -47 -8 -58 -18z"/>
</g>
</svg>
