<?xml version="1.0" standalone="no"?>
<!DOCTYPE svg PUBLIC "-//W3C//DTD SVG 20010904//EN"
 "http://www.w3.org/TR/2001/REC-SVG-20010904/DTD/svg10.dtd">
<svg version="1.0" xmlns="http://www.w3.org/2000/svg"
 width="821.000000pt" height="635.000000pt" viewBox="0 0 821.000000 635.000000"
 preserveAspectRatio="xMidYMid meet">

<g transform="translate(0.000000,635.000000) scale(0.100000,-0.100000)"
fill="#000000" stroke="none">
<path d="M4635 5528 c-418 -33 -761 -61 -763 -63 -2 -2 -21 -254 -42 -561 -22
-308 -41 -578 -43 -601 l-5 -43 119 0 119 0 0 -866 0 -866 207 278 c114 154
275 369 358 479 l150 200 443 3 c291 1 442 -1 442 -8 0 -5 -215 -270 -479
-587 -263 -318 -478 -579 -476 -581 11 -12 733 188 1150 319 l321 101 38 112
39 112 -344 1317 -344 1317 -65 -1 c-36 -1 -407 -28 -825 -61z"/>
<path d="M3335 4931 l-330 -26 -3 -30 c-1 -16 -43 -594 -91 -1283 l-89 -1254
89 -186 c50 -103 91 -188 93 -189 1 -2 65 8 142 22 76 14 140 25 141 25 2 0 4
505 5 1123 l3 1122 180 5 180 5 22 305 c28 389 28 390 6 389 -10 -1 -166 -13
-348 -28z"/>
<path d="M2408 4361 c-186 -15 -339 -29 -341 -32 -2 -2 -40 -510 -84 -1129
l-79 -1125 63 -127 c54 -109 67 -128 86 -128 65 0 798 108 810 120 5 4 -32 89
-82 188 l-91 181 70 988 c38 543 72 1012 75 1041 l5 52 -47 -1 c-27 -1 -200
-14 -385 -28z"/>
<path d="M1662 3850 c-117 -9 -215 -20 -218 -22 -3 -3 -36 -441 -74 -973 l-68
-968 36 -73 c30 -61 40 -73 57 -69 11 2 124 14 250 26 127 11 234 24 238 29 5
4 -17 59 -49 121 -50 100 -56 120 -55 170 0 31 28 436 61 900 33 464 60 852
60 862 0 9 -6 16 -12 16 -7 -1 -109 -9 -226 -19z"/>
<path d="M7195 3029 c-253 -115 -636 -264 -950 -372 -386 -133 -1023 -322
-1372 -408 -70 -18 -132 -35 -136 -39 -5 -4 185 -236 420 -516 l429 -509 198
0 199 0 37 140 c180 668 543 1184 1165 1659 98 76 111 86 105 86 -3 0 -45 -19
-95 -41z"/>
<path d="M4020 1615 l0 -435 336 0 c334 0 336 0 323 20 -8 11 -149 206 -314
434 -239 331 -305 415 -322 416 l-23 0 0 -435z"/>
<path d="M3110 1869 c-776 -142 -1883 -268 -2362 -269 -76 0 -138 -3 -138 -6
0 -4 55 -99 121 -210 l121 -204 1219 0 1219 0 0 360 c0 282 -3 360 -12 359 -7
-1 -83 -14 -168 -30z"/>
</g>
</svg>
