<?xml version="1.0" encoding="iso-8859-1"?>
<!-- Generator: Adobe Illustrator 19.0.0, SVG Export Plug-In . SVG Version: 6.00 Build 0)  -->
<svg version="1.1" id="Layer_1" xmlns="http://www.w3.org/2000/svg" xmlns:xlink="http://www.w3.org/1999/xlink" x="0px" y="0px"
	 viewBox="0 0 512 512" style="enable-background:new 0 0 512 512;" xml:space="preserve">
<g>
	<g>
		<path d="M458.158,244.449c-6.416-6.49-14.892-10.062-23.871-10.062c-0.014,0-0.03,0-0.044,0
			c-18.707,0.023-33.927,15.263-33.927,33.971c0,16.332-22.338,30.659-47.805,30.659l-0.705-0.003
			c-10.348-0.106-16.591-6.984-18.982-13.385c-2.38-6.371-2.179-15.613,5.525-22.441c31.798-28.188,50.036-70.317,50.036-115.587
			C388.386,66.213,328.997,0,255.999,0S123.612,66.213,123.612,147.601c0,45.269,18.237,87.399,50.036,115.587
			c7.703,6.828,7.904,16.07,5.525,22.441c-2.392,6.401-8.634,13.28-18.991,13.385l-0.697,0.003
			c-25.465,0-47.805-14.326-47.805-30.659c0-18.707-15.219-33.947-33.927-33.971c-9.011,0.028-17.489,3.562-23.916,10.062
			c-6.533,6.607-10.211,15.712-10.093,24.98c0.345,27.064,13.777,53.044,36.852,71.281c20.38,16.107,46.734,25.328,74.619,26.183
			c-8.888,2.721-17.513,4.267-24.733,4.267c-9.118,0-17.679,3.564-24.105,10.034c-6.424,6.47-9.928,15.056-9.865,24.177
			c0.128,18.632,15.517,33.732,34.338,33.73c0.052,0,0.106,0,0.158,0c21.313-0.096,45.724-6.078,68.484-16.476
			c-7.822,13.827-21.312,21.285-39.464,21.429c-19.063,0.151-34.547,15.417-34.515,34.031c0.032,18.701,15.27,33.915,33.971,33.915
			c32.064,0,61.241-11.824,82.158-33.294c5.404-5.547,10.2-11.66,14.356-18.287c4.156,6.627,8.952,12.74,14.356,18.287
			c20.759,21.309,49.704,33.132,81.504,33.292c18.841,0.069,34.409-14.965,34.623-33.574c0.105-9.152-3.379-17.773-9.811-24.278
			c-6.432-6.506-15.011-10.089-24.159-10.089c-18.434,0-32.115-7.464-40.013-21.434c22.764,10.401,47.173,16.383,68.489,16.479
			c0.053,0,0.105,0,0.158,0c18.819,0,34.209-15.099,34.338-33.73c0.064-9.121-3.44-17.708-9.865-24.178
			c-6.425-6.47-14.986-10.034-24.105-10.034c-7.22,0-15.845-1.546-24.733-4.267c27.886-0.855,54.239-10.076,74.619-26.183
			c23.075-18.237,36.507-44.218,36.852-71.282C468.37,260.161,464.691,251.056,458.158,244.449z M418.752,324.708
			c-17.83,14.092-41.355,21.854-66.24,21.854c-16.431,0-32.631-3.47-46.85-10.034c-4.37-2.017-9.558-0.705-12.442,3.149
			c-2.884,3.854-2.68,9.201,0.49,12.826c5.628,6.435,13.23,12.62,22.595,18.386c20.397,12.558,45.993,20.672,65.209,20.672
			c3.643,0,7.064,1.424,9.631,4.009c2.567,2.584,3.966,6.016,3.941,9.663c-0.052,7.464-6.336,13.463-14.006,13.473
			c-24.526-0.11-54.061-9.344-79.012-24.706c-0.244-0.149-0.482-0.301-0.721-0.453l-0.507-0.32c-3.35-2.104-7.614-2.081-10.943,0.06
			c-3.327,2.14-5.116,6.011-4.591,9.932c5.137,38.345,30.261,61.238,67.206,61.238c3.654,0,7.082,1.432,9.653,4.032
			c2.569,2.599,3.961,6.045,3.919,9.704c-0.085,7.41-6.38,13.41-14.048,13.41c-0.024,0-0.05,0-0.074,0
			c-26.288-0.133-50.081-9.767-66.994-27.128c-8.291-8.511-14.852-18.708-19.5-30.309c-1.551-3.869-5.299-6.405-9.468-6.405
			c-4.168,0-7.917,2.537-9.468,6.405c-4.648,11.601-11.209,21.798-19.5,30.309c-17.044,17.495-41.032,27.13-67.546,27.13
			c-7.472,0-13.56-6.078-13.573-13.55c-0.012-7.31,6.525-13.537,14.278-13.599c36.542-0.289,61.401-23.18,66.5-61.235
			c0.525-3.922-1.265-7.792-4.591-9.932c-1.68-1.081-3.598-1.622-5.518-1.622c-1.883,0-3.766,0.52-5.424,1.562l-0.507,0.32
			c-0.239,0.151-0.477,0.303-0.727,0.457c-24.945,15.357-54.48,24.591-79.005,24.701c-7.719,0.05-13.956-6.009-14.007-13.473
			c-0.026-3.645,1.374-7.076,3.941-9.662c2.568-2.586,5.988-4.009,9.631-4.009c19.215,0,44.811-8.115,65.21-20.673
			c9.009-5.546,16.367-11.484,21.925-17.656c1.401-1.166,4.667-4.009,8.402-8.142c3.778-4.179,3.452-10.628-0.726-14.405
			c-4.179-3.778-10.628-3.452-14.405,0.726c-2.407,2.663-4.572,4.635-5.73,5.639c-13.933,6.221-29.691,9.512-45.673,9.512
			c-24.884,0-48.408-7.761-66.24-21.854c-18.23-14.407-28.837-34.65-29.103-55.537c-0.049-3.846,1.483-7.628,4.202-10.379
			c2.554-2.583,5.88-4.005,9.367-4.005c0.005,0,0.011,0,0.017,0c7.474,0.009,13.555,6.098,13.555,13.573
			c0,13.919,7.85,27.432,21.537,37.072c12.803,9.018,29.376,13.984,46.665,13.984c0.308,0,0.615-0.001,0.914-0.004
			c17.032-0.174,31.901-10.633,37.883-26.644c5.968-15.973,1.609-33.576-11.102-44.844c-27.434-24.319-43.168-60.885-43.168-100.322
			c-0.001-70.144,50.237-127.207,111.987-127.207s111.988,57.063,111.988,127.202c0,39.437-15.734,76.003-43.168,100.322
			c-12.711,11.268-17.069,28.871-11.102,44.844c5.982,16.012,20.851,26.47,37.874,26.644c0.307,0.003,0.615,0.004,0.922,0.004
			c17.291,0,33.863-4.967,46.665-13.984c13.686-9.641,21.537-23.153,21.537-37.072c0-7.474,6.081-13.563,13.555-13.573
			c0.005,0,0.011,0,0.017,0c3.486,0,6.813,1.422,9.367,4.005c2.719,2.751,4.251,6.534,4.202,10.379
			C447.589,290.057,436.982,310.3,418.752,324.708z"/>
	</g>
</g>
<g>
	<g>
		<path d="M223.193,203.487c-6.672,0-12.1,5.428-12.1,12.1s5.428,12.101,12.1,12.101c6.673,0,12.101-5.429,12.101-12.101
			S229.867,203.487,223.193,203.487z"/>
	</g>
</g>
<g>
	<g>
		<path d="M288.805,203.487c-6.672,0-12.101,5.428-12.101,12.1s5.428,12.101,12.101,12.101c6.672,0,12.1-5.428,12.1-12.101
			C300.905,208.915,295.477,203.487,288.805,203.487z"/>
	</g>
</g>
<g>
</g>
<g>
</g>
<g>
</g>
<g>
</g>
<g>
</g>
<g>
</g>
<g>
</g>
<g>
</g>
<g>
</g>
<g>
</g>
<g>
</g>
<g>
</g>
<g>
</g>
<g>
</g>
<g>
</g>
</svg>
