<?xml version="1.0" encoding="UTF-8"?>
<svg fill="black" enable-background="new 0 0 512 512" version="1.1" viewBox="0 0 512 512" xml:space="preserve" xmlns="http://www.w3.org/2000/svg">
		<path d="m458.16 244.45c-6.416-6.49-14.892-10.062-23.871-10.062h-0.044c-18.707 0.023-33.927 15.263-33.927 33.971 0 16.332-22.338 30.659-47.805 30.659l-0.705-3e-3c-10.348-0.106-16.591-6.984-18.982-13.385-2.38-6.371-2.179-15.613 5.525-22.441 31.798-28.188 50.036-70.317 50.036-115.59 1e-3 -81.388-59.388-147.6-132.39-147.6s-132.39 66.213-132.39 147.6c0 45.269 18.237 87.399 50.036 115.59 7.703 6.828 7.904 16.07 5.525 22.441-2.392 6.401-8.634 13.28-18.991 13.385l-0.697 3e-3c-25.465 0-47.805-14.326-47.805-30.659 0-18.707-15.219-33.947-33.927-33.971-9.011 0.028-17.489 3.562-23.916 10.062-6.533 6.607-10.211 15.712-10.093 24.98 0.345 27.064 13.777 53.044 36.852 71.281 20.38 16.107 46.734 25.328 74.619 26.183-8.888 2.721-17.513 4.267-24.733 4.267-9.118 0-17.679 3.564-24.105 10.034-6.424 6.47-9.928 15.056-9.865 24.177 0.128 18.632 15.517 33.732 34.338 33.73h0.158c21.313-0.096 45.724-6.078 68.484-16.476-7.822 13.827-21.312 21.285-39.464 21.429-19.063 0.151-34.547 15.417-34.515 34.031 0.032 18.701 15.27 33.915 33.971 33.915 32.064 0 61.241-11.824 82.158-33.294 5.404-5.547 10.2-11.66 14.356-18.287 4.156 6.627 8.952 12.74 14.356 18.287 20.759 21.309 49.704 33.132 81.504 33.292 18.841 0.069 34.409-14.965 34.623-33.574 0.105-9.152-3.379-17.773-9.811-24.278-6.432-6.506-15.011-10.089-24.159-10.089-18.434 0-32.115-7.464-40.013-21.434 22.764 10.401 47.173 16.383 68.489 16.479h0.158c18.819 0 34.209-15.099 34.338-33.73 0.064-9.121-3.44-17.708-9.865-24.178s-14.986-10.034-24.105-10.034c-7.22 0-15.845-1.546-24.733-4.267 27.886-0.855 54.239-10.076 74.619-26.183 23.075-18.237 36.507-44.218 36.852-71.282 0.119-9.267-3.56-18.372-10.093-24.979zm-39.406 80.259c-17.83 14.092-41.355 21.854-66.24 21.854-16.431 0-32.631-3.47-46.85-10.034-4.37-2.017-9.558-0.705-12.442 3.149s-2.68 9.201 0.49 12.826c5.628 6.435 13.23 12.62 22.595 18.386 20.397 12.558 45.993 20.672 65.209 20.672 3.643 0 7.064 1.424 9.631 4.009 2.567 2.584 3.966 6.016 3.941 9.663-0.052 7.464-6.336 13.463-14.006 13.473-24.526-0.11-54.061-9.344-79.012-24.706-0.244-0.149-0.482-0.301-0.721-0.453l-0.507-0.32c-3.35-2.104-7.614-2.081-10.943 0.06-3.327 2.14-5.116 6.011-4.591 9.932 5.137 38.345 30.261 61.238 67.206 61.238 3.654 0 7.082 1.432 9.653 4.032 2.569 2.599 3.961 6.045 3.919 9.704-0.085 7.41-6.38 13.41-14.048 13.41h-0.074c-26.288-0.133-50.081-9.767-66.994-27.128-8.291-8.511-14.852-18.708-19.5-30.309-1.551-3.869-5.299-6.405-9.468-6.405-4.168 0-7.917 2.537-9.468 6.405-4.648 11.601-11.209 21.798-19.5 30.309-17.044 17.495-41.032 27.13-67.546 27.13-7.472 0-13.56-6.078-13.573-13.55-0.012-7.31 6.525-13.537 14.278-13.599 36.542-0.289 61.401-23.18 66.5-61.235 0.525-3.922-1.265-7.792-4.591-9.932-1.68-1.081-3.598-1.622-5.518-1.622-1.883 0-3.766 0.52-5.424 1.562l-0.507 0.32c-0.239 0.151-0.477 0.303-0.727 0.457-24.945 15.357-54.48 24.591-79.005 24.701-7.719 0.05-13.956-6.009-14.007-13.473-0.026-3.645 1.374-7.076 3.941-9.662 2.568-2.586 5.988-4.009 9.631-4.009 19.215 0 44.811-8.115 65.21-20.673 9.009-5.546 16.367-11.484 21.925-17.656 1.401-1.166 4.667-4.009 8.402-8.142 3.778-4.179 3.452-10.628-0.726-14.405-4.179-3.778-10.628-3.452-14.405 0.726-2.407 2.663-4.572 4.635-5.73 5.639-13.933 6.221-29.691 9.512-45.673 9.512-24.884 0-48.408-7.761-66.24-21.854-18.23-14.407-28.837-34.65-29.103-55.537-0.049-3.846 1.483-7.628 4.202-10.379 2.554-2.583 5.88-4.005 9.367-4.005h0.017c7.474 9e-3 13.555 6.098 13.555 13.573 0 13.919 7.85 27.432 21.537 37.072 12.803 9.018 29.376 13.984 46.665 13.984 0.308 0 0.615-1e-3 0.914-4e-3 17.032-0.174 31.901-10.633 37.883-26.644 5.968-15.973 1.609-33.576-11.102-44.844-27.434-24.319-43.168-60.885-43.168-100.32-1e-3 -70.144 50.237-127.21 111.99-127.21s111.99 57.063 111.99 127.2c0 39.437-15.734 76.003-43.168 100.32-12.711 11.268-17.069 28.871-11.102 44.844 5.982 16.012 20.851 26.47 37.874 26.644 0.307 3e-3 0.615 4e-3 0.922 4e-3 17.291 0 33.863-4.967 46.665-13.984 13.686-9.641 21.537-23.153 21.537-37.072 0-7.474 6.081-13.563 13.555-13.573h0.017c3.486 0 6.813 1.422 9.367 4.005 2.719 2.751 4.251 6.534 4.202 10.379-0.269 20.889-10.876 41.132-29.106 55.54z"/>
		<path d="m223.19 203.49c-6.672 0-12.1 5.428-12.1 12.1s5.428 12.101 12.1 12.101c6.673 0 12.101-5.429 12.101-12.101s-5.427-12.1-12.101-12.1z"/>
		<path d="m288.8 203.49c-6.672 0-12.101 5.428-12.101 12.1s5.428 12.101 12.101 12.101c6.672 0 12.1-5.428 12.1-12.101 0-6.672-5.428-12.1-12.1-12.1z"/>
</svg>
