<?xml version="1.0" standalone="no"?>
<!DOCTYPE svg PUBLIC "-//W3C//DTD SVG 20010904//EN"
 "http://www.w3.org/TR/2001/REC-SVG-20010904/DTD/svg10.dtd">
<svg version="1.0" xmlns="http://www.w3.org/2000/svg"
 width="100.000000pt" height="100.000000pt" viewBox="0 0 100.000000 100.000000"
 preserveAspectRatio="xMidYMid meet">
<metadata>
Created by potrace 1.14, written by Peter Selinger 2001-2017
</metadata>
<g transform="translate(0.000000,100.000000) scale(0.100000,-0.100000)"
fill="#000000" stroke="none">
<path d="M311 900 c-95 -54 -178 -103 -183 -108 -8 -8 -128 -395 -128 -414 0
-12 484 -372 500 -372 16 0 500 360 500 372 0 23 -122 408 -132 418 -7 6 -44
28 -83 49 -38 21 -74 41 -80 45 -22 17 -203 110 -211 109 -5 -1 -87 -45 -183
-99z m401 -390 c-47 -42 -77 -68 -154 -134 l-58 -48 -83 71 c-46 39 -103 88
-127 109 l-43 38 118 184 c64 102 122 191 127 197 7 9 45 -42 135 -184 l125
-197 -40 -36z m-383 238 c-61 -95 -120 -183 -132 -196 -28 -30 -127 -106 -131
-101 -2 2 18 74 44 159 l46 155 140 77 c76 43 140 78 141 78 1 0 -48 -78 -108
-172z m548 -98 c63 -211 64 -214 45 -198 -126 103 -132 111 -241 282 -61 95
-111 176 -111 179 0 3 61 -29 137 -71 l136 -77 34 -115z m-573 -209 c44 -38
92 -78 106 -90 14 -12 35 -31 48 -42 20 -18 22 -27 22 -134 l0 -115 -207 156
c-115 85 -208 160 -208 165 0 8 144 129 154 129 2 0 40 -31 85 -69z m556 9
c41 -33 75 -64 75 -69 0 -5 -93 -80 -207 -165 l-208 -156 0 114 0 115 102 88
c57 48 114 98 128 111 14 12 27 22 30 22 3 0 39 -27 80 -60z"/>
<path d="M465 771 c-41 -18 -58 -48 -53 -95 3 -26 1 -47 -5 -49 -5 -1 -2 -10
7 -19 11 -12 13 -19 5 -24 -14 -8 -30 15 -26 41 3 26 -47 35 -57 10 -4 -11 -1
-15 11 -13 10 2 22 -8 30 -22 10 -21 10 -27 -2 -39 -11 -12 -17 -12 -29 -1
-14 11 -16 9 -16 -9 0 -33 40 -47 79 -26 l32 16 -16 -31 c-12 -24 -21 -30 -36
-25 -25 8 -25 -11 0 -25 33 -17 52 -11 87 26 19 19 34 30 34 24 0 -20 49 -60
74 -60 15 0 30 8 36 20 9 17 8 20 -14 20 -13 0 -27 7 -30 16 -11 29 -6 35 17
20 12 -8 31 -13 42 -11 11 2 23 4 26 4 11 1 20 32 13 42 -4 6 -10 6 -18 0 -9
-8 -18 -7 -29 2 -14 10 -15 16 -4 37 8 15 20 24 31 22 11 -2 17 2 14 10 -8 23
-48 21 -75 -4 -25 -22 -25 -22 -14 -1 19 37 14 97 -11 120 -27 24 -75 35 -103
24z m91 -36 c27 -27 27 -62 -2 -116 -14 -27 -13 -30 2 -28 4 0 10 -4 13 -9 3
-5 24 -19 46 -31 29 -15 34 -21 19 -21 -12 0 -35 7 -53 16 -18 9 -34 14 -37
11 -6 -6 16 -58 35 -80 15 -18 14 -18 -10 -7 -13 6 -34 24 -44 41 -11 16 -22
29 -25 29 -3 0 -15 -16 -28 -35 -12 -19 -29 -35 -38 -35 -12 0 -14 4 -7 13 6
6 15 27 21 45 12 36 1 42 -32 17 -11 -8 -29 -15 -40 -15 -15 0 -9 8 24 27 25
15 48 27 53 25 12 -3 8 17 -8 42 -25 37 -22 96 4 118 33 26 77 23 107 -7z m52
-130 c-10 -23 -28 -34 -28 -18 0 7 31 43 36 43 2 0 -2 -11 -8 -25z"/>
<path d="M465 650 c-4 -6 -3 -16 3 -22 6 -6 12 -6 17 2 4 6 3 16 -3 22 -6 6
-12 6 -17 -2z"/>
<path d="M515 650 c-4 -7 -1 -16 6 -21 17 -10 26 8 11 23 -6 6 -12 6 -17 -2z"/>
</g>
</svg>
